 http://www.covershut.com/covers/Sherlock-Holmes-A-Game-Of-Shadows-2011-DU-Front-Cover-59452.jpg

Format : AVI
Format/Info : Audio Video Interleave
File size : 1.60 GiB
Duration : 2h 6mn
Overall bit rate : 1 820 Kbps
Writing library : VirtualDub build 32842/release

Video
ID : 0
Format : MPEG-4 Visual
Format profile : Advanced Simple@L5
Format settings, BVOP : 2
Format settings, QPel : No
Format settings, GMC : No warppoints
Format settings, Matrix : Default (H.263)
Muxing mode : Packed bitstream
Codec ID : XVID
Codec ID/Hint : XviD
Duration : 2h 6mn
Bit rate : 1 584 Kbps
Width : 720 pixels
Height : 304 pixels
Display aspect ratio : 2.35:1
Frame rate : 29.970 fps
Color space : YUV
Chroma subsampling : 4:2:0
Bit depth : 8 bits
Scan type : Progressive
Compression mode : Lossy
Bits/(Pixel*Frame) : 0.241
Stream size : 1.40 GiB (87%)
Writing library : XviD 64

Audio
ID : 1
Format : AC-3
Format/Info : Audio Coding 3
Mode extension : CM (complete main)
Codec ID : 2000
Duration : 2h 6mn
Bit rate mode : Constant
Bit rate : 224 Kbps
Channel(s) : 2 channels
Channel positions : Front: L R
Sampling rate : 48.0 KHz
Bit depth : 16 bits
Compression mode : Lossy
Stream size : 202 MiB (12%)
Alignment : Aligned on interleaves
Interleave, duration : 33 ms (1.00 video frame)
Interleave, preload duration : 512 ms








 
http://www.imdb.com/title/tt1515091/






Ratings: 7.7/10 from 78,803 users Metascore: 48/100
Reviews: 282 user | 294 critic | 38 from Metacritic.com

Sherlock Holmes and his sidekick Dr. Watson join forces to outwit and bring down their fiercest adversary, Professor Moriarty.

Director:
Guy Ritchie
Writers:
Michele Mulroney, Kieran Mulroney, and 1 more credit ┬╗
Stars:
Robert Downey Jr., Jude Law and Jared Harris







Source Used



Vobs..............Thanks matey




Reason for the READNFO is basically to say im not 100% on what the source really is.Video wise it has the feel of a real good cam so check out that sample provided and dont be fooled by all the tags around



Denoised it then sharpened back,deinterlaced,cropped,resized added saturation and blah blah blah




CHECK OUT SAMPLE !






Enjoy


